# xmcd
#
# Track frame offsets:
#  150
#  14506
#  28820
#  38298
#  48151
#  60354
#  76718
#  89007
#  101933
#  118456
#  130184
#
# Disc length: 1900 seconds
#
# Revision: 0
# Processed by: cddbd v1.5PL3 Copyright (c) Steve Scherf et al.
# Submitted via: AltoMP3_Maker 3.0
#
DISCID=89076a0b
DTITLE=Merle Haggard - Best of Merle Haggard
DYEAR=1900
DGENRE=
TTITLE0=I'm a Lonesome Fugitive
TTITLE1=Branded Man
TTITLE2=The Legend of Bonnie and Clyde
TTITLE3=Mama Tried
TTITLE4=Okie From Muskogee
TTITLE5=Hungry Eyes
TTITLE6=Workin' Man Blues
TTITLE7=The Fightin' Side of Me
TTITLE8=Daddy Frank
TTITLE9=Carolyn
TTITLE10=If We Make it Through December
EXTD=
EXTT0=
EXTT1=
EXTT2=
EXTT3=
EXTT4=
EXTT5=
EXTT6=
EXTT7=
EXTT8=
EXTT9=
EXTT10=
PLAYORDER=
